{
  "accessors": [
    {
      "bufferView": 2,
      "componentType": 5126,
      "count": 5756,
      "max": [
        0.8562306761741638,
        0.019982989877462387,
        0.8118810057640076
      ],
      "min": [
        -0.9582509994506836,
        -0.7647535800933838,
        -0.8118809461593628
      ],
      "type": "VEC3"
    },
    {
      "bufferView": 2,
      "byteOffset": 69072,
      "componentType": 5126,
      "count": 5756,
      "max": [
        0.9985648393630981,
        1.0,
        0.9976470470428467
      ],
      "min": [
        -0.998524010181427,
        -1.0,
        -0.9976471662521362
      ],
      "type": "VEC3"
    },
    {
      "bufferView": 1,
      "componentType": 5126,
      "count": 5756,
      "max": [
        0.5000001192092896,
        1.000000238418579
      ],
      "min": [
        0.1250000149011612,
        0.0
      ],
      "type": "VEC2"
    },
    {
      "bufferView": 0,
      "componentType": 5125,
      "count": 26112,
      "type": "SCALAR"
    },
    {
      "bufferView": 2,
      "byteOffset": 138144,
      "componentType": 5126,
      "count": 650,
      "max": [
        0.7978109121322632,
        -0.3134712278842926,
        0.758003830909729
      ],
      "min": [
        -0.798243522644043,
        -0.4479616582393646,
        -0.758003830909729
      ],
      "type": "VEC3"
    },
    {
      "bufferView": 2,
      "byteOffset": 145944,
      "componentType": 5126,
      "count": 650,
      "max": [
        0.9610851407051086,
        0.997826874256134,
        0.9657893776893616
      ],
      "min": [
        -0.9585487246513367,
        -0.9949832558631897,
        -0.9657895565032959
      ],
      "type": "VEC3"
    },
    {
      "bufferView": 1,
      "byteOffset": 46048,
      "componentType": 5126,
      "count": 650,
      "max": [
        0.4373929798603058,
        1.0000001192092896
      ],
      "min": [
        0.40603572130203247,
        0.0
      ],
      "type": "VEC2"
    },
    {
      "bufferView": 0,
      "byteOffset": 104448,
      "componentType": 5125,
      "count": 3072,
      "type": "SCALAR"
    },
    {
      "bufferView": 2,
      "byteOffset": 153744,
      "componentType": 5126,
      "count": 96,
      "max": [
        0.8056908249855042,
        4.745064341449279e-09,
        0.7595148682594299
      ],
      "min": [
        -0.8977053761482239,
        -0.030000003054738045,
        -0.7595148682594299
      ],
      "type": "VEC3"
    },
    {
      "bufferView": 2,
      "byteOffset": 154896,
      "componentType": 5126,
      "count": 96,
      "max": [
        0.9712005257606506,
        1.0,
        0.9835758209228516
      ],
      "min": [
        -0.8724179267883301,
        -1.0,
        -0.9835758805274963
      ],
      "type": "VEC3"
    },
    {
      "bufferView": 1,
      "byteOffset": 51248,
      "componentType": 5126,
      "count": 96,
      "max": [
        0.0,
        0.0
      ],
      "min": [
        0.0,
        0.0
      ],
      "type": "VEC2"
    },
    {
      "bufferView": 0,
      "byteOffset": 116736,
      "componentType": 5125,
      "count": 180,
      "type": "SCALAR"
    },
    {
      "bufferView": 2,
      "byteOffset": 156048,
      "componentType": 5126,
      "count": 592,
      "max": [
        0.4812718629837036,
        0.13319863379001617,
        0.5306006669998169
      ],
      "min": [
        -0.8652611374855042,
        -0.6426764726638794,
        -0.39406731724739075
      ],
      "type": "VEC3"
    },
    {
      "bufferView": 2,
      "byteOffset": 163152,
      "componentType": 5126,
      "count": 592,
      "max": [
        0.9806671142578125,
        0.982532262802124,
        0.9874401092529297
      ],
      "min": [
        -0.9794287085533142,
        -0.9865196943283081,
        -0.9995352625846863
      ],
      "type": "VEC3"
    },
    {
      "bufferView": 1,
      "byteOffset": 52016,
      "componentType": 5126,
      "count": 592,
      "max": [
        1.0,
        1.0
      ],
      "min": [
        0.0,
        0.0
      ],
      "type": "VEC2"
    },
    {
      "bufferView": 0,
      "byteOffset": 117456,
      "componentType": 5125,
      "count": 3060,
      "type": "SCALAR"
    },
    {
      "bufferView": 2,
      "byteOffset": 170256,
      "componentType": 5126,
      "count": 521,
      "max": [
        0.08618949353694916,
        0.22195523977279663,
        0.08618464320898056
      ],
      "min": [
        -0.08618950843811035,
        -0.19316472113132477,
        -0.08558135479688644
      ],
      "type": "VEC3"
    },
    {
      "bufferView": 2,
      "byteOffset": 176508,
      "componentType": 5126,
      "count": 521,
      "max": [
        0.9991394877433777,
        0.9979215264320374,
        0.9991421699523926
      ],
      "min": [
        -0.9991394281387329,
        -1.0,
        -0.9990459084510803
      ],
      "type": "VEC3"
    },
    {
      "bufferView": 1,
      "byteOffset": 56752,
      "componentType": 5126,
      "count": 521,
      "max": [
        1.0000001192092896,
        1.0000001192092896
      ],
      "min": [
        0.0,
        0.0
      ],
      "type": "VEC2"
    },
    {
      "bufferView": 0,
      "byteOffset": 129696,
      "componentType": 5125,
      "count": 2736,
      "type": "SCALAR"
    },
    {
      "bufferView": 2,
      "byteOffset": 182760,
      "componentType": 5126,
      "count": 4,
      "max": [
        1.0,
        0.0,
        1.0
      ],
      "min": [
        -1.0,
        0.0,
        -1.0
      ],
      "type": "VEC3"
    },
    {
      "bufferView": 2,
      "byteOffset": 182808,
      "componentType": 5126,
      "count": 4,
      "max": [
        0.0,
        1.0,
        -0.0
      ],
      "min": [
        0.0,
        1.0,
        -0.0
      ],
      "type": "VEC3"
    },
    {
      "bufferView": 1,
      "byteOffset": 60920,
      "componentType": 5126,
      "count": 4,
      "max": [
        1.0,
        1.0
      ],
      "min": [
        0.0,
        0.0
      ],
      "type": "VEC2"
    },
    {
      "bufferView": 0,
      "byteOffset": 140640,
      "componentType": 5125,
      "count": 6,
      "type": "SCALAR"
    },
    {
      "bufferView": 2,
      "byteOffset": 182856,
      "componentType": 5126,
      "count": 5756,
      "max": [
        0.8562306761741638,
        0.019982989877462387,
        0.8118810057640076
      ],
      "min": [
        -0.9582509994506836,
        -0.7647535800933838,
        -0.8118809461593628
      ],
      "type": "VEC3"
    },
    {
      "bufferView": 2,
      "byteOffset": 251928,
      "componentType": 5126,
      "count": 5756,
      "max": [
        0.9985648393630981,
        1.0,
        0.9976470470428467
      ],
      "min": [
        -0.998524010181427,
        -1.0,
        -0.9976471662521362
      ],
      "type": "VEC3"
    },
    {
      "bufferView": 1,
      "byteOffset": 60952,
      "componentType": 5126,
      "count": 5756,
      "max": [
        0.5000001192092896,
        1.000000238418579
      ],
      "min": [
        0.1250000149011612,
        0.0
      ],
      "type": "VEC2"
    },
    {
      "bufferView": 0,
      "byteOffset": 140664,
      "componentType": 5125,
      "count": 26112,
      "type": "SCALAR"
    },
    {
      "bufferView": 2,
      "byteOffset": 321000,
      "componentType": 5126,
      "count": 650,
      "max": [
        0.7978109121322632,
        -0.3134712278842926,
        0.758003830909729
      ],
      "min": [
        -0.798243522644043,
        -0.4479616582393646,
        -0.758003830909729
      ],
      "type": "VEC3"
    },
    {
      "bufferView": 2,
      "byteOffset": 328800,
      "componentType": 5126,
      "count": 650,
      "max": [
        0.9610851407051086,
        0.997826874256134,
        0.9657893776893616
      ],
      "min": [
        -0.9585487246513367,
        -0.9949832558631897,
        -0.9657895565032959
      ],
      "type": "VEC3"
    },
    {
      "bufferView": 1,
      "byteOffset": 107000,
      "componentType": 5126,
      "count": 650,
      "max": [
        0.4373929798603058,
        1.0000001192092896
      ],
      "min": [
        0.40603572130203247,
        0.0
      ],
      "type": "VEC2"
    },
    {
      "bufferView": 0,
      "byteOffset": 245112,
      "componentType": 5125,
      "count": 3072,
      "type": "SCALAR"
    },
    {
      "bufferView": 2,
      "byteOffset": 336600,
      "componentType": 5126,
      "count": 96,
      "max": [
        0.8056908249855042,
        4.745064341449279e-09,
        0.7595148682594299
      ],
      "min": [
        -0.8977053761482239,
        -0.030000003054738045,
        -0.7595148682594299
      ],
      "type": "VEC3"
    },
    {
      "bufferView": 2,
      "byteOffset": 337752,
      "componentType": 5126,
      "count": 96,
      "max": [
        0.9712005257606506,
        1.0,
        0.9835758209228516
      ],
      "min": [
        -0.8724179267883301,
        -1.0,
        -0.9835758805274963
      ],
      "type": "VEC3"
    },
    {
      "bufferView": 1,
      "byteOffset": 112200,
      "componentType": 5126,
      "count": 96,
      "max": [
        0.0,
        0.0
      ],
      "min": [
        0.0,
        0.0
      ],
      "type": "VEC2"
    },
    {
      "bufferView": 0,
      "byteOffset": 257400,
      "componentType": 5125,
      "count": 180,
      "type": "SCALAR"
    },
    {
      "bufferView": 2,
      "byteOffset": 338904,
      "componentType": 5126,
      "count": 592,
      "max": [
        0.4812718629837036,
        0.13319863379001617,
        0.5306006669998169
      ],
      "min": [
        -0.8652611374855042,
        -0.6426764726638794,
        -0.39406731724739075
      ],
      "type": "VEC3"
    },
    {
      "bufferView": 2,
      "byteOffset": 346008,
      "componentType": 5126,
      "count": 592,
      "max": [
        0.9806671142578125,
        0.982532262802124,
        0.9874401092529297
      ],
      "min": [
        -0.9794287085533142,
        -0.9865196943283081,
        -0.9995352625846863
      ],
      "type": "VEC3"
    },
    {
      "bufferView": 1,
      "byteOffset": 112968,
      "componentType": 5126,
      "count": 592,
      "max": [
        1.0,
        1.0
      ],
      "min": [
        0.0,
        0.0
      ],
      "type": "VEC2"
    },
    {
      "bufferView": 0,
      "byteOffset": 258120,
      "componentType": 5125,
      "count": 3060,
      "type": "SCALAR"
    },
    {
      "bufferView": 2,
      "byteOffset": 353112,
      "componentType": 5126,
      "count": 521,
      "max": [
        0.08618949353694916,
        0.22195523977279663,
        0.08618464320898056
      ],
      "min": [
        -0.08618950843811035,
        -0.19316472113132477,
        -0.08558135479688644
      ],
      "type": "VEC3"
    },
    {
      "bufferView": 2,
      "byteOffset": 359364,
      "componentType": 5126,
      "count": 521,
      "max": [
        0.9991394877433777,
        0.9979215264320374,
        0.9991421699523926
      ],
      "min": [
        -0.9991394281387329,
        -1.0,
        -0.9990459084510803
      ],
      "type": "VEC3"
    },
    {
      "bufferView": 1,
      "byteOffset": 117704,
      "componentType": 5126,
      "count": 521,
      "max": [
        1.0000001192092896,
        1.0000001192092896
      ],
      "min": [
        0.0,
        0.0
      ],
      "type": "VEC2"
    },
    {
      "bufferView": 0,
      "byteOffset": 270360,
      "componentType": 5125,
      "count": 2736,
      "type": "SCALAR"
    },
    {
      "bufferView": 2,
      "byteOffset": 365616,
      "componentType": 5126,
      "count": 5756,
      "max": [
        0.8562306761741638,
        0.019982989877462387,
        0.8118810057640076
      ],
      "min": [
        -0.9582509994506836,
        -0.7647535800933838,
        -0.8118809461593628
      ],
      "type": "VEC3"
    },
    {
      "bufferView": 2,
      "byteOffset": 434688,
      "componentType": 5126,
      "count": 5756,
      "max": [
        0.9985648393630981,
        1.0,
        0.9976470470428467
      ],
      "min": [
        -0.998524010181427,
        -1.0,
        -0.9976471662521362
      ],
      "type": "VEC3"
    },
    {
      "bufferView": 1,
      "byteOffset": 121872,
      "componentType": 5126,
      "count": 5756,
      "max": [
        0.5000001192092896,
        1.000000238418579
      ],
      "min": [
        0.1250000149011612,
        0.0
      ],
      "type": "VEC2"
    },
    {
      "bufferView": 0,
      "byteOffset": 281304,
      "componentType": 5125,
      "count": 26112,
      "type": "SCALAR"
    },
    {
      "bufferView": 2,
      "byteOffset": 503760,
      "componentType": 5126,
      "count": 650,
      "max": [
        0.7978109121322632,
        -0.3134712278842926,
        0.758003830909729
      ],
      "min": [
        -0.798243522644043,
        -0.4479616582393646,
        -0.758003830909729
      ],
      "type": "VEC3"
    },
    {
      "bufferView": 2,
      "byteOffset": 511560,
      "componentType": 5126,
      "count": 650,
      "max": [
        0.9610851407051086,
        0.997826874256134,
        0.9657893776893616
      ],
      "min": [
        -0.9585487246513367,
        -0.9949832558631897,
        -0.9657895565032959
      ],
      "type": "VEC3"
    },
    {
      "bufferView": 1,
      "byteOffset": 167920,
      "componentType": 5126,
      "count": 650,
      "max": [
        0.4373929798603058,
        1.0000001192092896
      ],
      "min": [
        0.40603572130203247,
        0.0
      ],
      "type": "VEC2"
    },
    {
      "bufferView": 0,
      "byteOffset": 385752,
      "componentType": 5125,
      "count": 3072,
      "type": "SCALAR"
    },
    {
      "bufferView": 2,
      "byteOffset": 519360,
      "componentType": 5126,
      "count": 96,
      "max": [
        0.8056908249855042,
        4.745064341449279e-09,
        0.7595148682594299
      ],
      "min": [
        -0.8977053761482239,
        -0.030000003054738045,
        -0.7595148682594299
      ],
      "type": "VEC3"
    },
    {
      "bufferView": 2,
      "byteOffset": 520512,
      "componentType": 5126,
      "count": 96,
      "max": [
        0.9712005257606506,
        1.0,
        0.9835758209228516
      ],
      "min": [
        -0.8724179267883301,
        -1.0,
        -0.9835758805274963
      ],
      "type": "VEC3"
    },
    {
      "bufferView": 1,
      "byteOffset": 173120,
      "componentType": 5126,
      "count": 96,
      "max": [
        0.0,
        0.0
      ],
      "min": [
        0.0,
        0.0
      ],
      "type": "VEC2"
    },
    {
      "bufferView": 0,
      "byteOffset": 398040,
      "componentType": 5125,
      "count": 180,
      "type": "SCALAR"
    },
    {
      "bufferView": 2,
      "byteOffset": 521664,
      "componentType": 5126,
      "count": 592,
      "max": [
        0.4812718629837036,
        0.13319863379001617,
        0.5306006669998169
      ],
      "min": [
        -0.8652611374855042,
        -0.6426764726638794,
        -0.39406731724739075
      ],
      "type": "VEC3"
    },
    {
      "bufferView": 2,
      "byteOffset": 528768,
      "componentType": 5126,
      "count": 592,
      "max": [
        0.9806671142578125,
        0.982532262802124,
        0.9874401092529297
      ],
      "min": [
        -0.9794287085533142,
        -0.9865196943283081,
        -0.9995352625846863
      ],
      "type": "VEC3"
    },
    {
      "bufferView": 1,
      "byteOffset": 173888,
      "componentType": 5126,
      "count": 592,
      "max": [
        1.0,
        1.0
      ],
      "min": [
        0.0,
        0.0
      ],
      "type": "VEC2"
    },
    {
      "bufferView": 0,
      "byteOffset": 398760,
      "componentType": 5125,
      "count": 3060,
      "type": "SCALAR"
    },
    {
      "bufferView": 2,
      "byteOffset": 535872,
      "componentType": 5126,
      "count": 521,
      "max": [
        0.08618949353694916,
        0.22195523977279663,
        0.08618464320898056
      ],
      "min": [
        -0.08618950843811035,
        -0.19316472113132477,
        -0.08558135479688644
      ],
      "type": "VEC3"
    },
    {
      "bufferView": 2,
      "byteOffset": 542124,
      "componentType": 5126,
      "count": 521,
      "max": [
        0.9991394877433777,
        0.9979215264320374,
        0.9991421699523926
      ],
      "min": [
        -0.9991394281387329,
        -1.0,
        -0.9990459084510803
      ],
      "type": "VEC3"
    },
    {
      "bufferView": 1,
      "byteOffset": 178624,
      "componentType": 5126,
      "count": 521,
      "max": [
        1.0000001192092896,
        1.0000001192092896
      ],
      "min": [
        0.0,
        0.0
      ],
      "type": "VEC2"
    },
    {
      "bufferView": 0,
      "byteOffset": 411000,
      "componentType": 5125,
      "count": 2736,
      "type": "SCALAR"
    }
  ],
  "asset": {
    "extras": {
      "author": "meenuchan (https://sketchfab.com/meenuchan)",
      "license": "CC-BY-4.0 (http://creativecommons.org/licenses/by/4.0/)",
      "source": "https://sketchfab.com/3d-models/diya-in-blender-2edfab057e5b4d3b86c63c48ca09525d",
      "title": "Diya in Blender"
    },
    "generator": "Sketchfab-15.47.0",
    "version": "2.0"
  },
  "bufferViews": [
    {
      "buffer": 0,
      "byteLength": 421944,
      "name": "floatBufferViews",
      "target": 34963
    },
    {
      "buffer": 0,
      "byteLength": 182792,
      "byteOffset": 421944,
      "byteStride": 8,
      "name": "floatBufferViews",
      "target": 34962
    },
    {
      "buffer": 0,
      "byteLength": 548376,
      "byteOffset": 604736,
      "byteStride": 12,
      "name": "floatBufferViews",
      "target": 34962
    }
  ],
  "buffers": [
    {
      "byteLength": 1153112,
      "uri": "scene.bin"
    }
  ],
  "extensionsRequired": [
    "KHR_materials_pbrSpecularGlossiness"
  ],
  "extensionsUsed": [
    "KHR_materials_pbrSpecularGlossiness",
    "KHR_materials_emissive_strength"
  ],
  "materials": [
    {
      "doubleSided": true,
      "extensions": {
        "KHR_materials_pbrSpecularGlossiness": {
          "diffuseFactor": [
            1.0,
            1.0,
            1.0,
            1.0
          ],
          "glossinessFactor": 0.4,
          "specularFactor": [
            0.0,
            0.0,
            0.0
          ]
        }
      },
      "name": "material_0"
    },
    {
      "doubleSided": true,
      "extensions": {
        "KHR_materials_pbrSpecularGlossiness": {
          "diffuseFactor": [
            0.6825607283822327,
            0.13047509525602682,
            0.01724171176698486,
            1.0
          ],
          "glossinessFactor": 0.09999999999999998,
          "specularFactor": [
            0.0,
            0.0,
            0.0
          ]
        }
      },
      "name": "Material"
    },
    {
      "doubleSided": true,
      "extensions": {
        "KHR_materials_pbrSpecularGlossiness": {
          "diffuseFactor": [
            0.7999999999999999,
            0.4320769999999995,
            0.0027740500000000027,
            1.0
          ],
          "glossinessFactor": 0.5,
          "specularFactor": [
            0.6434353616066887,
            0.6434353616066887,
            0.6434353616066887
          ]
        }
      },
      "name": "Material.002"
    },
    {
      "doubleSided": true,
      "extensions": {
        "KHR_materials_pbrSpecularGlossiness": {
          "diffuseFactor": [
            0.06595230982208983,
            0.036101365197722536,
            0.0,
            1.0
          ],
          "glossinessFactor": 0.7634562898268452,
          "specularFactor": [
            0.0,
            0.0,
            0.0
          ]
        }
      },
      "name": "Material.003"
    },
    {
      "doubleSided": true,
      "emissiveFactor": [
        0.36194566421935803,
        0.04652462483961272,
        0.0
      ],
      "extensions": {
        "KHR_materials_emissive_strength": {
          "emissiveStrength": 9.045747796908971
        },
        "KHR_materials_pbrSpecularGlossiness": {
          "diffuseFactor": [
            1.0,
            0.10641029604061061,
            0.04524436574019952,
            1.0
          ],
          "glossinessFactor": 0.8424054162243966,
          "specularFactor": [
            1.0,
            1.0,
            1.0
          ]
        }
      },
      "name": "Material.001"
    },
    {
      "doubleSided": true,
      "extensions": {
        "KHR_materials_pbrSpecularGlossiness": {
          "diffuseFactor": [
            0.4798399999999996,
            0.35234399999999977,
            0.027111200000000005,
            1.0
          ],
          "glossinessFactor": 0.0,
          "specularFactor": [
            0.0,
            0.0,
            0.0
          ]
        }
      },
      "name": "Material.004"
    }
  ],
  "meshes": [
    {
      "name": "Object_0",
      "primitives": [
        {
          "attributes": {
            "NORMAL": 1,
            "POSITION": 0,
            "TEXCOORD_0": 2
          },
          "indices": 3,
          "material": 1,
          "mode": 4
        }
      ]
    },
    {
      "name": "Object_1",
      "primitives": [
        {
          "attributes": {
            "NORMAL": 5,
            "POSITION": 4,
            "TEXCOORD_0": 6
          },
          "indices": 7,
          "material": 2,
          "mode": 4
        }
      ]
    },
    {
      "name": "Object_2",
      "primitives": [
        {
          "attributes": {
            "NORMAL": 9,
            "POSITION": 8,
            "TEXCOORD_0": 10
          },
          "indices": 11,
          "material": 3,
          "mode": 4
        }
      ]
    },
    {
      "name": "Object_3",
      "primitives": [
        {
          "attributes": {
            "NORMAL": 13,
            "POSITION": 12,
            "TEXCOORD_0": 14
          },
          "indices": 15,
          "material": 0,
          "mode": 4
        }
      ]
    },
    {
      "name": "Object_4",
      "primitives": [
        {
          "attributes": {
            "NORMAL": 17,
            "POSITION": 16,
            "TEXCOORD_0": 18
          },
          "indices": 19,
          "material": 4,
          "mode": 4
        }
      ]
    },
    {
      "name": "Object_5",
      "primitives": [
        {
          "attributes": {
            "NORMAL": 21,
            "POSITION": 20,
            "TEXCOORD_0": 22
          },
          "indices": 23,
          "material": 5,
          "mode": 4
        }
      ]
    },
    {
      "name": "Object_6",
      "primitives": [
        {
          "attributes": {
            "NORMAL": 25,
            "POSITION": 24,
            "TEXCOORD_0": 26
          },
          "indices": 27,
          "material": 1,
          "mode": 4
        }
      ]
    },
    {
      "name": "Object_7",
      "primitives": [
        {
          "attributes": {
            "NORMAL": 29,
            "POSITION": 28,
            "TEXCOORD_0": 30
          },
          "indices": 31,
          "material": 2,
          "mode": 4
        }
      ]
    },
    {
      "name": "Object_8",
      "primitives": [
        {
          "attributes": {
            "NORMAL": 33,
            "POSITION": 32,
            "TEXCOORD_0": 34
          },
          "indices": 35,
          "material": 3,
          "mode": 4
        }
      ]
    },
    {
      "name": "Object_9",
      "primitives": [
        {
          "attributes": {
            "NORMAL": 37,
            "POSITION": 36,
            "TEXCOORD_0": 38
          },
          "indices": 39,
          "material": 0,
          "mode": 4
        }
      ]
    },
    {
      "name": "Object_10",
      "primitives": [
        {
          "attributes": {
            "NORMAL": 41,
            "POSITION": 40,
            "TEXCOORD_0": 42
          },
          "indices": 43,
          "material": 4,
          "mode": 4
        }
      ]
    },
    {
      "name": "Object_11",
      "primitives": [
        {
          "attributes": {
            "NORMAL": 45,
            "POSITION": 44,
            "TEXCOORD_0": 46
          },
          "indices": 47,
          "material": 1,
          "mode": 4
        }
      ]
    },
    {
      "name": "Object_12",
      "primitives": [
        {
          "attributes": {
            "NORMAL": 49,
            "POSITION": 48,
            "TEXCOORD_0": 50
          },
          "indices": 51,
          "material": 2,
          "mode": 4
        }
      ]
    },
    {
      "name": "Object_13",
      "primitives": [
        {
          "attributes": {
            "NORMAL": 53,
            "POSITION": 52,
            "TEXCOORD_0": 54
          },
          "indices": 55,
          "material": 3,
          "mode": 4
        }
      ]
    },
    {
      "name": "Object_14",
      "primitives": [
        {
          "attributes": {
            "NORMAL": 57,
            "POSITION": 56,
            "TEXCOORD_0": 58
          },
          "indices": 59,
          "material": 0,
          "mode": 4
        }
      ]
    },
    {
      "name": "Object_15",
      "primitives": [
        {
          "attributes": {
            "NORMAL": 61,
            "POSITION": 60,
            "TEXCOORD_0": 62
          },
          "indices": 63,
          "material": 4,
          "mode": 4
        }
      ]
    }
  ],
  "nodes": [
    {
      "children": [
        1
      ],
      "matrix": [
        1.0,
        0.0,
        0.0,
        0.0,
        0.0,
        2.220446049250313e-16,
        -1.0,
        0.0,
        0.0,
        1.0,
        2.220446049250313e-16,
        0.0,
        0.0,
        0.0,
        0.0,
        1.0
      ],
      "name": "Sketchfab_model"
    },
    {
      "children": [
        2
      ],
      "name": "root"
    },
    {
      "children": [
        3,
        12,
        14,
        23
      ],
      "matrix": [
        1.0,
        0.0,
        0.0,
        0.0,
        0.0,
        2.220446049250313e-16,
        1.0,
        0.0,
        0.0,
        -1.0,
        2.220446049250313e-16,
        0.0,
        0.0,
        0.0,
        0.0,
        1.0
      ],
      "name": "GLTF_SceneRootNode"
    },
    {
      "children": [
        4,
        5,
        6,
        8,
        10
      ],
      "name": "Cube_4"
    },
    {
      "mesh": 0,
      "name": "Object_4"
    },
    {
      "mesh": 1,
      "name": "Object_5"
    },
    {
      "children": [
        7
      ],
      "matrix": [
        1.0,
        0.0,
        0.0,
        0.0,
        0.0,
        1.0,
        0.0,
        0.0,
        0.0,
        0.0,
        1.0,
        0.0,
        0.0,
        -0.10386329144239426,
        0.0,
        1.0
      ],
      "name": "Cube.001_0"
    },
    {
      "mesh": 2,
      "name": "Object_7"
    },
    {
      "children": [
        9
      ],
      "name": "NurbsPath.003_2"
    },
    {
      "mesh": 3,
      "name": "Object_9"
    },
    {
      "children": [
        11
      ],
      "matrix": [
        1.0,
        0.0,
        0.0,
        0.0,
        0.0,
        1.0,
        0.0,
        0.0,
        0.0,
        0.0,
        1.0,
        0.0,
        -0.843910813331604,
        0.2480882704257965,
        1.6501104255439714e-05,
        1.0
      ],
      "name": "Sphere_3"
    },
    {
      "mesh": 4,
      "name": "Object_11"
    },
    {
      "children": [
        13
      ],
      "matrix": [
        -35.42906188964844,
        0.0,
        -0.0,
        -0.0,
        -0.0,
        -35.42906188964844,
        -0.0,
        -0.0,
        -0.0,
        0.0,
        -35.42906188964844,
        -0.0,
        28.164331436157227,
        -0.7270176410675049,
        0.0,
        1.0
      ],
      "name": "Plane_7"
    },
    {
      "mesh": 5,
      "name": "Object_13"
    },
    {
      "children": [
        15,
        16,
        17,
        19,
        21
      ],
      "matrix": [
        1.0,
        0.0,
        0.0,
        0.0,
        0.0,
        1.0,
        0.0,
        0.0,
        0.0,
        0.0,
        1.0,
        0.0,
        1.6773619651794434,
        0.0,
        -1.4369009733200073,
        1.0
      ],
      "name": "Cube.002_12"
    },
    {
      "mesh": 6,
      "name": "Object_15"
    },
    {
      "mesh": 7,
      "name": "Object_16"
    },
    {
      "children": [
        18
      ],
      "matrix": [
        1.0,
        0.0,
        0.0,
        0.0,
        0.0,
        1.0,
        0.0,
        0.0,
        0.0,
        0.0,
        1.0,
        0.0,
        0.0,
        -0.10386329144239426,
        0.0,
        1.0
      ],
      "name": "Cube.003_8"
    },
    {
      "mesh": 8,
      "name": "Object_18"
    },
    {
      "children": [
        20
      ],
      "name": "NurbsPath.004_10"
    },
    {
      "mesh": 9,
      "name": "Object_20"
    },
    {
      "children": [
        22
      ],
      "matrix": [
        1.0,
        0.0,
        0.0,
        0.0,
        0.0,
        1.0,
        0.0,
        0.0,
        0.0,
        0.0,
        1.0,
        0.0,
        -0.843910813331604,
        0.2480882704257965,
        1.6501104255439714e-05,
        1.0
      ],
      "name": "Sphere.001_11"
    },
    {
      "mesh": 10,
      "name": "Object_22"
    },
    {
      "children": [
        24,
        25,
        26,
        28,
        30
      ],
      "matrix": [
        1.0,
        0.0,
        0.0,
        0.0,
        0.0,
        1.0,
        0.0,
        0.0,
        0.0,
        0.0,
        1.0,
        0.0,
        1.6773619651794434,
        0.0,
        1.4486308097839355,
        1.0
      ],
      "name": "Cube.004_17"
    },
    {
      "mesh": 11,
      "name": "Object_24"
    },
    {
      "mesh": 12,
      "name": "Object_25"
    },
    {
      "children": [
        27
      ],
      "matrix": [
        1.0,
        0.0,
        0.0,
        0.0,
        0.0,
        1.0,
        0.0,
        0.0,
        0.0,
        0.0,
        1.0,
        0.0,
        0.0,
        -0.10386329144239426,
        0.0,
        1.0
      ],
      "name": "Cube.005_13"
    },
    {
      "mesh": 13,
      "name": "Object_27"
    },
    {
      "children": [
        29
      ],
      "name": "NurbsPath.005_15"
    },
    {
      "mesh": 14,
      "name": "Object_29"
    },
    {
      "children": [
        31
      ],
      "matrix": [
        1.0,
        0.0,
        0.0,
        0.0,
        0.0,
        1.0,
        0.0,
        0.0,
        0.0,
        0.0,
        1.0,
        0.0,
        -0.843910813331604,
        0.2480882704257965,
        1.6501104255439714e-05,
        1.0
      ],
      "name": "Sphere.002_16"
    },
    {
      "mesh": 15,
      "name": "Object_31"
    }
  ],
  "scene": 0,
  "scenes": [
    {
      "name": "Sketchfab_Scene",
      "nodes": [
        0
      ]
    }
  ]
}
